        <svg xmlns="http://www.w3.org/2000/svg" viewBox="0 0 24 24"><path d="M1.40206 10.5258H18.5131C18.6167 10.5248 18.709 10.4602 18.7455 10.3633C18.7821 10.2663 18.7553 10.1569 18.6781 10.0878L14.0411 6.48776C13.4767 5.95564 13.4352 5.0721 13.9472 4.48944C14.4593 3.90679 15.3408 3.83442 15.9411 4.32576L23.1221 10.1648C23.6387 10.6204 23.9346 11.276 23.9346 11.9648C23.9346 12.6536 23.6387 13.3092 23.1221 13.7648L15.9431 19.6018C15.3426 20.0868 14.4665 20.0121 13.9568 19.4324C13.4471 18.8527 13.4852 17.9742 14.0431 17.4408L18.6801 13.8408C18.7572 13.7717 18.7841 13.6622 18.7475 13.5653C18.711 13.4683 18.6187 13.4038 18.5151 13.4028H1.40206C0.621817 13.3822 0 12.7438 0 11.9633C0 11.1828 0.621817 10.5443 1.40206 10.5238V10.5258Z"></path></svg>