<svg xmlns="http://www.w3.org/2000/svg" viewBox="0 0 24 24"><path fill-rule="evenodd" clip-rule="evenodd" d="M4.401 9.602C4.682 9.883 5.067 10.041 5.463 10.041H5.502C5.918 10.031 6.299 9.854 6.577 9.545L9.734 6.038C10.27 5.443 10.245 4.534 9.679 3.967L8.098 2.385C7.809 2.096 7.394 1.941 7 1.947C6.59 1.957 6.198 2.138 5.924 2.442L2.764 5.954C2.23 6.547 2.254 7.455 2.818 8.02L4.401 9.602ZM10.722 11.734L12.173 10.075C13.547 11.004 15.169 11.499 16.828 11.495H17.5C18.329 11.495 19 10.823 19 9.995C19 9.16599 18.329 8.495 17.5 8.495H16.828C15.416 8.49099 14.062 7.93 13.061 6.93399C12.774 6.62999 12.367 6.47 11.95 6.496C11.535 6.509 11.145 6.69499 10.871 7.007L7.371 11.007C6.827 11.632 6.891 12.58 7.516 13.123C7.565 13.166 7.617 13.206 7.671 13.243L8.335 13.685C10.123 14.89 10.994 17.063 10.535 19.169C10.338 19.974 10.83 20.787 11.635 20.984C12.44 21.181 13.252 20.688 13.449 19.883C13.454 19.863 13.459 19.841 13.463 19.82C14.115 16.825 13.061 13.714 10.722 11.734ZM22 18.495C22 17.114 20.881 15.995 19.5 15.995C18.119 15.995 17 17.114 17 18.495C17 19.875 18.119 20.995 19.5 20.995C20.881 20.995 22 19.875 22 18.495ZM24 18.495C24 20.98 21.985 22.995 19.5 22.995C17.015 22.995 15 20.98 15 18.495C15 16.009 17.015 13.995 19.5 13.995C21.985 13.995 24 16.009 24 18.495ZM7 18.495C7 17.114 5.881 15.995 4.5 15.995C3.119 15.995 2 17.114 2 18.495C2 19.875 3.119 20.995 4.5 20.995C5.881 20.995 7 19.875 7 18.495ZM9 18.495C9 20.98 6.985 22.995 4.5 22.995C2.015 22.995 0 20.98 0 18.495C0 16.009 2.015 13.995 4.5 13.995C6.985 13.995 9 16.009 9 18.495ZM12.125 3.995C12.125 2.683 13.189 1.62 14.5 1.62C15.812 1.62 16.875 2.683 16.875 3.995C16.875 5.30599 15.812 6.37 14.5 6.37C13.189 6.37 12.125 5.30599 12.125 3.995Z"></path></svg>