<svg xmlns="http://www.w3.org/2000/svg" viewBox="0 0 24 24" class="VenueCard__StyledRatingSmiley-sc-m1skqj-23 jXgPNP"><path d="M12 0C5.4 0 0 5.4 0 12s5.4 12 12 12 12-5.4 12-12S18.6 0 12 0zm0 22C6.5 22 2 17.5 2 12S6.5 2 12 2s10 4.5 10 10-4.5 10-10 10zm0-2.9c-2.2 0-4-1.4-4.4-3.5-.2-.7.1-1.1.8-1.1 2.5 0 5-.1 7.4.1.7 0 .8.2.7 1-.4 2.1-2.3 3.5-4.5 3.5zM5 9.8c.1-2 1.7-3.2 3.5-2.6 1.1.4 1.9 1.7 1.8 2.9-.1.4-.4.8-.8.8-.4.1-.8-.2-1-.7-.1-.2-.2-.5-.2-.7-.1-.3-.3-.6-.7-.6-.3 0-.5.3-.6.6-.1.2-.1.3-.1.5-.1.5-.5.9-1.1.8-.4 0-.8-.4-.8-1zm8.7 0c.1-2 1.8-3.2 3.5-2.5 1.1.4 1.9 1.7 1.7 2.9-.1.4-.4.8-.9.8-.4 0-.8-.3-1-.7 0-.3 0-.6-.1-.9-.1-.2-.3-.4-.6-.4s-.5.2-.6.5c-.1.2-.1.4-.1.6-.1.6-.5 1-1.1.9-.6-.2-.9-.6-.8-1.2z" fill-rule="evenodd" clip-rule="evenodd" fill="currentColor"></path></svg>